# xmcd
#
# Track frame offsets:
#	150
#	12245
#	24412
#	35456
#	47104
#	58158
#	70655
#	82519
#	96847
#	109911
#	124150
#
# Disc length: 1852 seconds
#
# Revision: 0
# Processed by: cddbd v1.5.1PL2 Copyright (c) Steve Scherf et al.
# Submitted via: EasyCDDAExtractor 9.1.3.1
#
DISCID=85073a0b
DTITLE=Gene Autry - Tumbling Tumbleweeds
DYEAR=2006
DGENRE=Country
TTITLE0=El Rancho Grande
TTITLE1=(I've Got Spurs That) Jingle, Jingle, Jingle
TTITLE2=Red River Valley
TTITLE3=Don't Fence Me In
TTITLE4=You Are My Sunshine
TTITLE5=Deep In The Heart Of Texas
TTITLE6=Blueberry Hill
TTITLE7=Take Me Back To My Boots And Saddle
TTITLE8=The Yellow Rose Of Texas
TTITLE9=Mexicali Rose
TTITLE10=Tumbling Tumbleweeds
EXTD=
EXTT0=
EXTT1=
EXTT2=
EXTT3=
EXTT4=
EXTT5=
EXTT6=
EXTT7=
EXTT8=
EXTT9=
EXTT10=
PLAYORDER=
